<svg xmlns="http://www.w3.org/2000/svg" xmlns:xlink="http://www.w3.org/1999/xlink" width="40" zoomAndPan="magnify" viewBox="0 0 30 30.000001" height="40" preserveAspectRatio="xMidYMid meet" version="1.2"><defs><clipPath id="fdac490fdd"><path d="M 1.175781 9.472656 L 23 9.472656 L 23 11 L 1.175781 11 Z M 1.175781 9.472656 "/></clipPath><clipPath id="e92147f2ab"><path d="M 1.175781 14 L 16 14 L 16 16 L 1.175781 16 Z M 1.175781 14 "/></clipPath><clipPath id="0d86a89888"><path d="M 1.175781 18 L 28.757812 18 L 28.757812 19.632812 L 1.175781 19.632812 Z M 1.175781 18 "/></clipPath></defs><g id="4270ae30da"><g clip-rule="nonzero" clip-path="url(#fdac490fdd)"><path style=" stroke:none;fill-rule:nonzero;fill:#000000;fill-opacity:1;" d="M 21.78125 10.609375 L 1.742188 10.609375 C 1.4375 10.609375 1.191406 10.359375 1.191406 10.054688 C 1.191406 9.746094 1.4375 9.496094 1.742188 9.496094 L 21.785156 9.496094 C 22.089844 9.496094 22.335938 9.746094 22.335938 10.054688 C 22.335938 10.359375 22.089844 10.609375 21.78125 10.609375 Z M 21.78125 10.609375 "/></g><g clip-rule="nonzero" clip-path="url(#e92147f2ab)"><path style=" stroke:none;fill-rule:nonzero;fill:#000000;fill-opacity:1;" d="M 14.980469 15.128906 L 1.742188 15.128906 C 1.4375 15.128906 1.191406 14.882812 1.191406 14.574219 C 1.191406 14.265625 1.4375 14.015625 1.742188 14.015625 L 14.980469 14.015625 C 15.285156 14.015625 15.53125 14.265625 15.53125 14.574219 C 15.53125 14.882812 15.285156 15.128906 14.980469 15.128906 Z M 14.980469 15.128906 "/></g><g clip-rule="nonzero" clip-path="url(#0d86a89888)"><path style=" stroke:none;fill-rule:nonzero;fill:#000000;fill-opacity:1;" d="M 28.21875 19.589844 L 1.742188 19.589844 C 1.4375 19.589844 1.191406 19.339844 1.191406 19.035156 C 1.191406 18.726562 1.4375 18.476562 1.742188 18.476562 L 28.21875 18.476562 C 28.523438 18.476562 28.773438 18.726562 28.773438 19.035156 C 28.773438 19.339844 28.523438 19.589844 28.21875 19.589844 Z M 28.21875 19.589844 "/></g></g></svg>