<svg xmlns="http://www.w3.org/2000/svg" xmlns:xlink="http://www.w3.org/1999/xlink" width="40" zoomAndPan="magnify" viewBox="0 0 30 30.000001" height="40" preserveAspectRatio="xMidYMid meet" version="1.2"><defs><clipPath id="ca834371b3"><path d="M 1.175781 9.472656 L 23 9.472656 L 23 11 L 1.175781 11 Z M 1.175781 9.472656 "/></clipPath><clipPath id="52705e9f21"><path d="M 1.175781 13 L 16 13 L 16 16 L 1.175781 16 Z M 1.175781 13 "/></clipPath><clipPath id="156749bdba"><path d="M 1.175781 18 L 28.757812 18 L 28.757812 19.632812 L 1.175781 19.632812 Z M 1.175781 18 "/></clipPath></defs><g id="5d006cd256"><g clip-rule="nonzero" clip-path="url(#ca834371b3)"><path style=" stroke:none;fill-rule:nonzero;fill:#ffffff;fill-opacity:1;" d="M 21.78125 10.597656 L 1.742188 10.597656 C 1.4375 10.597656 1.191406 10.351562 1.191406 10.046875 C 1.191406 9.742188 1.4375 9.496094 1.742188 9.496094 L 21.785156 9.496094 C 22.089844 9.496094 22.335938 9.742188 22.335938 10.046875 C 22.335938 10.351562 22.089844 10.597656 21.78125 10.597656 Z M 21.78125 10.597656 "/></g><g clip-rule="nonzero" clip-path="url(#52705e9f21)"><path style=" stroke:none;fill-rule:nonzero;fill:#ffffff;fill-opacity:1;" d="M 14.980469 15.074219 L 1.742188 15.074219 C 1.4375 15.074219 1.191406 14.828125 1.191406 14.523438 C 1.191406 14.21875 1.4375 13.972656 1.742188 13.972656 L 14.980469 13.972656 C 15.285156 13.972656 15.53125 14.21875 15.53125 14.523438 C 15.53125 14.828125 15.285156 15.074219 14.980469 15.074219 Z M 14.980469 15.074219 "/></g><g clip-rule="nonzero" clip-path="url(#156749bdba)"><path style=" stroke:none;fill-rule:nonzero;fill:#ffffff;fill-opacity:1;" d="M 28.21875 19.492188 L 1.742188 19.492188 C 1.4375 19.492188 1.191406 19.246094 1.191406 18.941406 C 1.191406 18.636719 1.4375 18.386719 1.742188 18.386719 L 28.21875 18.386719 C 28.523438 18.386719 28.773438 18.636719 28.773438 18.941406 C 28.773438 19.246094 28.523438 19.492188 28.21875 19.492188 Z M 28.21875 19.492188 "/></g></g></svg>